<?xml version="1.0" encoding="utf-8"?>
<!-- Generator: Adobe Illustrator 26.5.0, SVG Export Plug-In . SVG Version: 6.00 Build 0)  -->
<svg version="1.1" id="Layer_1" xmlns="http://www.w3.org/2000/svg" xmlns:xlink="http://www.w3.org/1999/xlink" x="0px" y="0px"
	 viewBox="0 0 733.33 143.51" style="enable-background:new 0 0 733.33 143.51;" xml:space="preserve">
<style type="text/css">
	.st0{fill:#4D464D;}
	.st1{fill:#3399FF;}
</style>
<g>
	<g>
		<path class="st0" d="M401.62,113.7c3.64,2.62,6.89,2.93,10.32,2.94c3.97,0.01,6.18-0.73,8.04-4.29l2.23-5.42l-29.7-70l24.19,0.08
			l17.22,46.69l15.67-46.73l23.4,0.08l-31.88,80.7c-5.47,13.33-14.61,19.65-28.09,19.6c-6.49-0.02-12.6-1.05-18.1-3.66L401.62,113.7
			z"/>
	</g>
</g>
<g>
	<path class="st1" d="M692.43,35.05l-0.32,95.12l-23.41-0.08l0.11-32.85c-4.89,6.51-12.24,9.3-21.18,9.42
		c-16.76,0.22-32.99-14.17-32.92-36.09c0.07-21.53,13.14-35.71,32.74-35.65c9.21,0.03,16.56,3.71,21.54,10.12l0.03-10.07
		L692.43,35.05z M668.9,71.4c0.04-10.57-6.12-17.64-15.2-17.67c-9.21-0.03-15.41,7.13-15.45,17.57
		c-0.04,10.44,6.12,17.64,15.33,17.67C662.66,89,668.86,81.84,668.9,71.4z"/>
</g>
<g>
	<path class="st1" d="M528.25,37.04h-15.49V19.87h-22.92v17.16h-9.71v17.22h9.71v30.04c0,14.5,9.84,22.53,23.44,22.4
		c6.84,0,13.47-1.39,18.51-4.35c-3.69-4.73-5.41-10.02-6.85-15.47c-1.97,0.65-4.33,1.18-5.83,1.18c-4.01,0.13-6.34-2.2-6.34-7.38
		V54.25h11.81h3.68V37.04z"/>
</g>
<g>
	<path class="st1" d="M608,77.26l-50.22-0.13c2.23,7.95,8.18,12.4,16.28,12.43c6.1,0.02,12.6-1.6,17.94-5.71l11.59,11.11
		c-7.32,8.05-18.44,12.09-31.71,12.04c-23.48-0.08-37.9-14.32-37.82-35.81c0.07-21.88,15.12-36.28,37.54-36.21
		C596.67,35.06,609.68,51.61,608,77.26z M584.89,64.85c0.03-8.07-5.26-13.56-13.22-13.59c-7.69-0.03-12.75,5.43-14.38,13.5
		L584.89,64.85z"/>
</g>
<g>
	<path class="st0" d="M93.73,8.73V107H70.51V96.95c-4.83,6.52-12,10.05-20.87,10.05c-19.83,0-32.88-14.61-32.88-36.53
		c0-21.53,12.92-35.74,32.35-35.74c9.13,0,16.44,3.65,21.39,10.05V8.73H93.73z M70.51,71.12c0-10.57-6.13-17.61-15.13-17.61
		c-9.13,0-15.26,7.18-15.26,17.61c0,10.44,6.13,17.61,15.26,17.61C64.38,88.74,70.51,81.56,70.51,71.12z"/>
	<path class="st0" d="M267.27,71.29c0,21.46-12.75,35.64-32.26,35.64c-8.98,0-16.26-3.51-21.2-9.89v33.02h-23.15V35h23.15v9.89
		c4.94-6.37,11.97-9.89,20.68-9.89C254.13,35,267.27,49.44,267.27,71.29z M243.98,70.77c0-10.41-6.11-17.56-15.22-17.56
		c-8.85,0-14.96,7.15-14.96,17.56c0,10.41,6.11,17.43,14.96,17.43C237.87,88.2,243.98,81.18,243.98,70.77z"/>
	<path class="st0" d="M301.28,19.96v86.91h-23.22V19.96H301.28z"/>
	<path class="st0" d="M390.07,70.73c0,21.79-15.39,36.14-38.62,36.14c-23.22,0-38.48-14.35-38.48-36.14
		c0-21.66,15.26-36.01,38.48-36.01C374.68,34.73,390.07,49.08,390.07,70.73z M336.32,70.99c0,10.57,6.13,17.61,15.13,17.61
		c9.13,0,15.26-7.04,15.26-17.61c0-10.44-6.13-17.48-15.26-17.48C342.46,53.51,336.32,60.56,336.32,70.99z"/>
</g>
<g>
	<g>
		<path class="st0" d="M178.94,77.26l-50.22-0.13c2.23,7.95,8.18,12.4,16.28,12.43c6.1,0.02,12.6-1.6,17.94-5.71l11.59,11.11
			c-7.32,8.05-18.44,12.09-31.71,12.04c-23.48-0.08-37.9-14.32-37.82-35.81c0.07-21.88,15.12-36.28,37.54-36.21
			C167.6,35.06,180.62,51.61,178.94,77.26z M155.83,64.85c0.03-8.07-5.26-13.56-13.22-13.59c-7.69-0.03-12.75,5.43-14.38,13.5
			L155.83,64.85z"/>
	</g>
</g>
</svg>
